Coordinates
version=1
nRows=5
nColumns=63
inDegrees=yes

Units are S.I. units (second, meters, Newtons, ...)
If the header above contains a line with 'inDegrees', this indicates whether rotational values are in degrees (yes) or radians (no).

endheader
time	pelvis_tilt	pelvis_list	pelvis_rotation	pelvis_tx	pelvis_ty	pelvis_tz	hip_flexion_r	hip_adduction_r	hip_rotation_r	knee_angle_r	knee_angle_r_beta	ankle_angle_r	subtalar_angle_r	mtp_angle_r	hip_flexion_l	hip_adduction_l	hip_rotation_l	knee_angle_l	knee_angle_l_beta	ankle_angle_l	subtalar_angle_l	mtp_angle_l	L5_S1_Flex_Ext	L5_S1_Lat_Bending	L5_S1_axial_rotation	L4_L5_Flex_Ext	L4_L5_Lat_Bending	L4_L5_axial_rotation	L3_L4_Flex_Ext	L3_L4_Lat_Bending	L3_L4_axial_rotation	L2_L3_Flex_Ext	L2_L3_Lat_Bending	L2_L3_axial_rotation	L1_L2_Flex_Ext	L1_L2_Lat_Bending	L1_L2_axial_rotation	L1_T12_Flex_Ext	L1_T12_Lat_Bending	L1_T12_axial_rotation	Abs_r3	Abs_r2	Abs_r1	Abs_t1	Abs_t2	neck_flexion	neck_bending	neck_rotation	arm_flex_r	arm_add_r	arm_rot_r	elbow_flex_r	pro_sup_r	wrist_flex_r	wrist_dev_r	arm_flex_l	arm_add_l	arm_rot_l	elbow_flex_l	pro_sup_l	wrist_flex_l	wrist_dev_l
      0.00000000	      1.01044867	     -2.46252414	     93.48688899	      0.18077349	      0.73128878	      0.82569089	      6.23183754	     -2.31023103	     17.03382259	      1.38015729	      0.02408829	     22.26202817	    -16.86990646	      0.00000000	      9.07850491	      1.92283746	      2.76894847	      8.60970043	      0.15026762	     30.64147291	     -0.25332613	      0.00000000	      0.41545069	     -0.02411870	     -0.62386410	      0.77153347	     -0.03207787	     -0.66285560	      0.68254394	     -0.05864221	     -0.66285560	      0.47481859	     -0.05864221	     -0.54588109	      0.38578751	     -0.04918285	     -0.50688958	      0.23738852	     -0.03735986	     -0.46789807	      2.96752272	     -0.27283555	     -3.46974495	      0.00000000	      0.00000000	     28.10297442	      3.16845020	      5.55098120	     18.02030368	     -3.76898785	     72.65942050	     26.49789677	     75.95952354	      0.99229936	     -1.72628837	     19.65156217	     -4.28059835	     78.84258818	     30.06811596	     75.13342424	     -2.42980721	     -8.57278914
      0.02173913	      0.83615969	     -2.35220910	     93.38560253	      0.18087805	      0.73154795	      0.82589647	      6.14493714	     -2.35878448	     16.33993252	      1.48640995	      0.02594275	     22.72344799	    -16.41748577	      0.00000000	      8.83266113	      2.32133988	      5.90168258	      8.23609822	      0.14374703	     29.69025222	     -4.87528863	      0.00000000	      0.39916715	     -0.06226805	     -0.48705807	      0.74129331	     -0.08281650	     -0.51749920	      0.65579170	     -0.15139853	     -0.51749920	      0.45620813	     -0.15139853	     -0.42617582	      0.37066661	     -0.12697700	     -0.39573469	      0.22808411	     -0.09645320	     -0.36529356	      2.85121101	     -0.70438860	     -2.70887089	      0.00000000	      0.00000000	     28.08483155	      3.01234837	      4.07101478	     16.56314858	     -4.16800394	     69.48108364	     27.38150031	     61.20194576	      3.35431150	      1.15953554	     20.09231867	     -4.23852899	     79.71516586	     30.17532389	     74.29242578	     -2.27572830	     -8.20695216
      0.04347826	      0.82393193	     -2.36156448	     93.62280085	      0.18050845	      0.73148750	      0.82631450	      6.18038344	     -2.30366605	     15.06060728	      1.66024990	      0.02897683	     23.22057593	    -15.47280319	      0.00000000	      9.01458552	      2.37339815	      5.96231816	      8.47654856	      0.14794368	     29.78376856	     -4.73285866	      0.00000000	      0.40228934	     -0.07487532	     -0.44511799	      0.74709153	     -0.09958417	     -0.47293787	      0.66092115	     -0.18205184	     -0.47293787	      0.45977649	     -0.18205184	     -0.38947824	      0.37356588	     -0.15268575	     -0.36165837	      0.22986813	     -0.11598187	     -0.33383850	      2.87351252	     -0.84700455	     -2.47561275	      0.00000000	      0.00000000	     28.06132329	      2.88826042	      3.22865524	     15.69305541	     -4.42597928	     67.36525293	     27.89632743	     58.27569514	      3.92858453	      1.79761923	     20.44937920	     -4.12992134	     80.66979280	     30.02110258	     74.12296763	     -2.36590606	     -8.61359979
      0.06521739	      0.82482720	     -2.09530860	     93.53103464	      0.18051435	      0.73169370	      0.82681514	      6.10433833	     -2.24821314	     11.76934671	      2.13172962	      0.03720570	     24.68156320	    -10.87560490	      0.00000000	      8.83201746	      2.26662539	      4.79222263	      8.63280496	      0.15067087	     30.08421596	     -3.15896831	      0.00000000	      0.35479324	     -0.07482017	     -0.38945970	      0.65888653	     -0.09951083	     -0.41380093	      0.58288982	     -0.18191776	     -0.41380093	      0.40549320	     -0.18191776	     -0.34077724	      0.32946101	     -0.15257329	     -0.31643601	      0.20272886	     -0.11589645	     -0.29209477	      2.53425266	     -0.84638074	     -2.16605801	      0.00000000	      0.00000000	     28.06262979	      2.77126040	      2.96173003	     15.37298875	     -4.68542472	     66.78483421	     28.41550185	     56.28209538	      3.95291603	      2.29529405	     20.64704076	     -4.24372521	     81.05157628	     30.37854781	     71.72627452	     -2.35540187	     -8.04072941
      0.08695652	      0.77125133	     -2.09202778	     93.52976837	      0.18020874	      0.73142976	      0.82670445	      5.90699711	     -2.24878651	     14.40140509	      1.86055676	      0.03247284	     23.44026561	    -15.01866920	      0.00000000	      8.67796347	      2.58144030	      8.27124843	      8.40229428	      0.14664770	     28.77342029	     -7.97469513	      0.00000000	      0.36237537	     -0.08013605	     -0.33501216	      0.67296730	     -0.10658094	     -0.35595042	      0.59534649	     -0.19484279	     -0.35595042	      0.41415881	     -0.19484279	     -0.29313564	      0.33650177	     -0.16341343	     -0.27219738	      0.20706129	     -0.12413074	     -0.25125912	      2.58841102	     -0.90651499	     -1.86323713	      0.00000000	      0.00000000	     28.04137336	      2.51366614	      2.48730052	     14.91012757	     -4.84775304	     65.89113004	     28.70397180	     56.98369163	      3.95683038	      2.30075425	     20.84114616	     -4.18470705	     81.92476998	     30.19217019	     72.21477019	     -2.56750103	     -8.97702449
